:SAMPLES-PER-SECOND 30
:FULLY-SPECIFIED
:DEGREES
98
root  -24.9929 38.4942 25.7095 -162.94 -78.8857 157.038
RightUpLeg  16.7283 -4.9536 1.65084
RightLeg  14.0631 9.8254 0.403458
RightFoot  -21.2506 -1.02602 -10.1577
RightToes  1.33877e-009 0 -3.6325e-017
Spine  5.80048 0.434145 6.97956
Spine1  9.90568 2.78846 -7.43466
HEad  -7.74067 -4.67206 -1.63013
LeftShoulder1  -0.537973 4.97924 -30.309
LeftArm  -5.17812 11.7768 -40.7307
LeftForeArm  20.5884 -29.586 -5.29374
LeftHand  -0.00458731 5.81255 5.50447
RightShoulder  -0.670914 -5.49046 27.0888
RightArm  20.1459 -1.73438 51.6023
RightForeArm  8.04737 44.8806 10.6102
RightHand  -0.397157 3.27568 -5.56027
LeftUpLeg  -17.6275 1.75696 -1.47625
LeftLeg  -2.34104 7.83666 -1.82462
LeftFoot  -1.53396 0.898447 -10.2201
LeftToes  -1.45701e-009 4.75788e-011 -4.21586e-011
99
root  -26.4788 38.2055 25.529 -164.6 -78.1533 158.693
RightUpLeg  18.8635 -3.85002 1.46189
RightLeg  14.914 9.57457 0.786518
RightFoot  -22.3837 -1.007 -8.82785
RightToes  1.33877e-009 0 -3.6325e-017
Spine  5.43492 0.809921 6.1839
Spine1  10.3075 3.16888 -7.30022
HEad  -7.45491 -5.00688 -1.24997
LeftShoulder1  -0.568564 5.05901 -30.3934
LeftArm  -6.5894 12.6493 -40.4384
LeftForeArm  22.3682 -32.8103 -5.97555
LeftHand  0.0378866 6.80462 5.53088
RightShoulder  -0.657804 -5.44692 27.1558
RightArm  19.4352 -3.07795 51.7342
RightForeArm  8.36661 47.014 11.452
RightHand  -0.381508 3.36616 -5.30096
LeftUpLeg  -18.9905 1.73475 -2.40409
LeftLeg  2.22317 8.61798 -1.5964
LeftFoot  1.26829 0.589344 -6.00138
LeftToes  -1.45701e-009 4.75788e-011 -4.21586e-011
100
root  -28.0246 37.9663 25.342 -163.31 -77.5033 157.039
RightUpLeg  21.1198 -1.99497 0.815107
RightLeg  16.3448 8.68114 1.55163
RightFoot  -22.8888 -0.812347 -6.53141
RightToes  1.33877e-009 0 -3.6325e-017
Spine  5.61506 1.0907 4.43367
Spine1  10.3366 3.32124 -6.83323
HEad  -7.24341 -5.82452 -1.20376
LeftShoulder1  -0.638377 5.21926 -31.0659
LeftArm  -7.56219 13.8081 -39.5168
LeftForeArm  23.3582 -36.0026 -6.74966
LeftHand  0.00366178 6.07208 5.29155
RightShoulder  -0.614759 -5.31805 27.1454
RightArm  18.1761 -5.11653 51.7048
RightForeArm  8.79158 49.4304 12.4752
RightHand  -0.393109 3.23726 -5.52889
LeftUpLeg  -20.8377 1.92565 -4.39089
LeftLeg  9.10673 3.89285 -0.481915
LeftFoot  7.54557 -0.217894 1.26156
LeftToes  -1.45701e-009 4.75788e-011 -4.21586e-011
101
root  -29.636 37.721 25.1174 -157.667 -76.6506 150.445
RightUpLeg  22.4793 -0.474093 -1.45183
RightLeg  20.8639 8.58996 3.41649
RightFoot  -22.8843 -0.476551 -3.22795
RightToes  1.33877e-009 0 -3.6325e-017
Spine  5.62415 1.35969 1.67442
Spine1  10.9497 3.46868 -6.73134
HEad  -6.52567 -6.69016 0.00870512
LeftShoulder1  -0.68795 5.34817 -31.1408
LeftArm  -7.96319 14.0818 -38.8537
LeftForeArm  23.3234 -38.4739 -7.44462
LeftHand  -0.0205593 5.43782 6.13087
RightShoulder  -0.74758 -5.63717 28.3857
RightArm  18.1106 -5.89132 51.3751
RightForeArm  8.44939 50.5169 13.0251
RightHand  -0.363029 3.56627 -4.95039
LeftUpLeg  -21.3913 2.07103 -6.87487
LeftLeg  15.8944 2.84726 1.02655
LeftFoot  9.20393 -0.319008 1.49362
LeftToes  -1.45701e-009 4.75788e-011 -4.21586e-011
102
root  -31.1168 37.5967 24.902 -153.414 -76.16 145.512
RightUpLeg  21.1427 -1.72734 -4.64728
RightLeg  29.3321 11.1472 6.55198
RightFoot  -19.7618 0.0420951 2.88815
RightToes  1.33877e-009 0 -3.6325e-017
Spine  6.53733 1.4038 -0.577729
Spine1  10.57 3.34253 -6.86843
HEad  -5.95393 -7.38975 1.15204
LeftShoulder1  -0.679348 5.3017 -31.6455
LeftArm  -8.45464 14.1527 -38.1231
LeftForeArm  23.2765 -39.781 -7.83769
LeftHand  -0.0588425 4.67514 6.48893
RightShoulder  -0.817443 -5.80625 28.8572
RightArm  17.9407 -6.92225 51.7066
RightForeArm  9.07349 51.2307 13.3336
RightHand  -0.315772 3.2818 -4.47836
LeftUpLeg  -21.5443 1.93712 -8.53963
LeftLeg  22.0468 2.76521 1.614
LeftFoot  5.63755 -0.524154 3.27145
LeftToes  -1.45701e-009 4.75788e-011 -4.21586e-011
103
root  -32.3345 37.6018 24.7766 -153.589 -74.6773 145.398
RightUpLeg  15.8491 -1.55887 -7.53825
RightLeg  41.8161 12.2799 11.259
RightFoot  -11.9064 -0.0388136 11.384
RightToes  1.33877e-009 0 -3.6325e-017
Spine  7.71973 1.87178 -1.2749
Spine1  10.6481 3.81999 -8.10462
HEad  -5.63852 -7.74448 0.765038
LeftShoulder1  -0.581182 5.02888 -31.9474
LeftArm  -8.83634 13.8592 -38.5135
LeftForeArm  22.5933 -40.5526 -8.12134
LeftHand  -0.0248896 5.34253 6.48709
RightShoulder  -0.65196 -5.41838 27.3756
RightArm  17.4628 -7.59976 53.1326
RightForeArm  9.37522 52.2641 13.8489
RightHand  -0.33073 2.5634 -5.03001
LeftUpLeg  -20.8869 1.88366 -9.33
LeftLeg  25.3482 4.17309 2.4875
LeftFoot  2.49018 -0.502204 4.00717
LeftToes  -1.45701e-009 4.75788e-011 -4.21586e-011
104
root  -33.4764 37.6534 24.6141 -153.997 -72.3363 145.852
RightUpLeg  7.87599 0.179736 -9.92337
RightLeg  54.8584 10.2794 14.8656
RightFoot  -0.104164 -1.43596 14.8734
RightToes  1.33877e-009 0 -3.6325e-017
Spine  8.50573 2.40338 -2.7755
Spine1  10.6589 4.28625 -9.07177
HEad  -5.6718 -6.89459 0.0822473
LeftShoulder1  -0.47981 4.7864 -31.2512
LeftArm  -10.1127 13.902 -39.9049
LeftForeArm  23.2144 -41.5916 -8.4081
LeftHand  -0.0369736 5.12089 6.80582
RightShoulder  -0.603193 -5.27377 27.3448
RightArm  18.5395 -6.45063 53.0712
RightForeArm  10.8693 53.7681 14.5535
RightHand  -0.301772 2.40614 -4.69328
LeftUpLeg  -19.9998 3.68442 -10.3603
LeftLeg  27.2878 4.47595 2.85992
LeftFoot  -0.535328 -0.380832 4.03696
LeftToes  -1.45701e-009 4.75788e-011 -4.21586e-011
105
root  -34.5895 37.7199 24.4222 -153.819 -71.2762 145.407
RightUpLeg  0.984873 -0.187489 -11.9952
RightLeg  64.0602 7.05995 14.812
RightFoot  6.5142 -2.22929 14.3449
RightToes  1.33877e-009 0 -3.6325e-017
Spine  9.08251 2.24325 -4.22494
Spine1  11.3133 3.88166 -9.24633
HEad  -6.0203 -5.81427 -0.658177
LeftShoulder1  -0.381938 4.53742 -30.829
LeftArm  -10.0617 13.1298 -40.7563
LeftForeArm  23.1079 -42.652 -8.76977
LeftHand  -0.0370065 5.12992 7.37845
RightShoulder  -0.63227 -5.36075 27.3206
RightArm  18.7643 -4.47267 53.1715
RightForeArm  12.4914 55.6128 15.5332
RightHand  -0.265099 2.01654 -4.33309
LeftUpLeg  -18.4395 4.15754 -10.999
LeftLeg  28.6304 4.90621 3.2581
LeftFoot  -3.36152 -0.226088 3.5434
LeftToes  -1.45701e-009 4.75788e-011 -4.21586e-011
